<?xml version="1.0" encoding="utf-8"?>
<!-- Generator: Adobe Illustrator 23.0.2, SVG Export Plug-In . SVG Version: 6.00 Build 0)  -->
<svg version="1.1" id="Calque_1" xmlns="http://www.w3.org/2000/svg" xmlns:xlink="http://www.w3.org/1999/xlink" x="0px" y="0px"
	 viewBox="0 0 316 417" style="enable-background:new 0 0 316 417;" xml:space="preserve">
<style type="text/css">
	.st0{fill:#272727;}
	.st1{fill:#CF995F;stroke:#CF995F;stroke-width:5;stroke-miterlimit:10;}
	.st2{fill:none;stroke:#CF995F;stroke-width:6;stroke-linecap:round;stroke-linejoin:round;stroke-miterlimit:10;}
	.st3{fill:none;}
	.st4{fill:#CF995F;}
	.st5{fill:#FFFFFA;}
	.st6{fill:#CF995F;stroke:#6B8F71;stroke-width:5;stroke-miterlimit:10;}
	.st7{fill:none;stroke:#6B8F71;stroke-width:6;stroke-linecap:round;stroke-linejoin:round;stroke-miterlimit:10;}
	.st8{fill:#6B8F71;}
	.st9{fill:#5688C7;stroke:#5688C7;stroke-width:5;stroke-miterlimit:10;}
	.st10{fill:none;stroke:#5688C7;stroke-width:6;stroke-linecap:round;stroke-linejoin:round;stroke-miterlimit:10;}
	.st11{fill:#5688C7;}
</style>
<rect x="27" y="9" class="st0" width="141" height="120"/>
<rect x="27" y="147" class="st0" width="141" height="120"/>
<rect x="27" y="286" class="st0" width="141" height="120"/>
<g id="beigeFondNoir">
	<polyline class="st1" points="73.8,71.3 98.5,71.3 123.2,71.3 	"/>
	<line class="st2" x1="99" y1="98" x2="99" y2="73.4"/>
	<polygon class="st3" points="98.5,35.5 79.3,68.8 117.7,68.8 	"/>
	<path class="st4" d="M51.3,103.3c-1,1.7-0.4,3.8,1.3,4.8s3.8,0.4,4.8-1.3l19-33h-8.1L51.3,103.3z"/>
	<path class="st5" d="M98.5,35.5l19.2,33.3h8.1l-24.3-42c-0.6-1.1-1.8-1.8-3-1.8s-2.4,0.7-3,1.8l-24.3,42h8.1L98.5,35.5z"/>
	<path class="st4" d="M145.7,103.3l-17-29.5h-8.1l19,33c0.6,1.1,1.8,1.8,3,1.8c0.6,0,1.2-0.2,1.7-0.5
		C146.1,107.1,146.7,104.9,145.7,103.3z"/>
	<polygon class="st4" points="119.2,71.3 127.2,71.3 125.8,68.8 117.7,68.8 	"/>
	<polygon class="st4" points="77.8,71.3 79.3,68.8 71.2,68.8 69.8,71.3 	"/>
	<polygon class="st4" points="127.2,71.3 119.2,71.3 120.6,73.8 128.7,73.8 	"/>
	<polygon class="st4" points="69.8,71.3 68.3,73.8 76.4,73.8 77.8,71.3 	"/>
</g>
<g id="beigeFondNBlanc">
	<polyline class="st1" points="215.8,70.3 240.5,70.3 265.2,70.3 	"/>
	<line class="st2" x1="241" y1="97" x2="241" y2="72.4"/>
	<polygon class="st3" points="240.5,34.5 221.3,67.8 259.7,67.8 	"/>
	<path class="st4" d="M193.3,102.3c-1,1.7-0.4,3.8,1.3,4.8s3.8,0.4,4.8-1.3l19-33h-8.1L193.3,102.3z"/>
	<path class="st0" d="M240.5,34.5l19.2,33.3h8.1l-24.3-42c-0.6-1.1-1.8-1.8-3-1.8s-2.4,0.7-3,1.8l-24.3,42h8.1L240.5,34.5z"/>
	<path class="st4" d="M287.7,102.3l-17-29.5h-8.1l19,33c0.6,1.1,1.8,1.8,3,1.8c0.6,0,1.2-0.2,1.7-0.5
		C288.1,106.1,288.7,103.9,287.7,102.3z"/>
	<polygon class="st4" points="261.2,70.3 269.2,70.3 267.8,67.8 259.7,67.8 	"/>
	<polygon class="st4" points="219.8,70.3 221.3,67.8 213.2,67.8 211.8,70.3 	"/>
	<polygon class="st4" points="269.2,70.3 261.2,70.3 262.6,72.8 270.7,72.8 	"/>
	<polygon class="st4" points="211.8,70.3 210.3,72.8 218.4,72.8 219.8,70.3 	"/>
</g>
<g id="vertFondNoir">
	<polyline class="st6" points="73.8,207.3 98.5,207.3 123.2,207.3 	"/>
	<line class="st7" x1="99" y1="234" x2="99" y2="209.4"/>
	<polygon class="st3" points="98.5,171.5 79.3,204.8 117.7,204.8 	"/>
	<path class="st8" d="M51.3,239.3c-1,1.7-0.4,3.8,1.3,4.8s3.8,0.4,4.8-1.3l19-33h-8.1L51.3,239.3z"/>
	<path class="st5" d="M98.5,171.5l19.2,33.3h8.1l-24.3-42c-0.6-1.1-1.8-1.8-3-1.8s-2.4,0.7-3,1.8l-24.3,42h8.1L98.5,171.5z"/>
	<path class="st8" d="M145.7,239.3l-17-29.5h-8.1l19,33c0.6,1.1,1.8,1.8,3,1.8c0.6,0,1.2-0.2,1.7-0.5
		C146.1,243.1,146.7,240.9,145.7,239.3z"/>
	<polygon class="st8" points="119.2,207.3 127.2,207.3 125.8,204.8 117.7,204.8 	"/>
	<polygon class="st8" points="77.8,207.3 79.3,204.8 71.2,204.8 69.8,207.3 	"/>
	<polygon class="st8" points="127.2,207.3 119.2,207.3 120.6,209.8 128.7,209.8 	"/>
	<polygon class="st8" points="69.8,207.3 68.3,209.8 76.4,209.8 77.8,207.3 	"/>
</g>
<g id="vertFondBlanc">
	<g>
		<polyline class="st4" points="215.8,203.3 240.5,203.3 265.2,203.3 		"/>
		<rect x="215.8" y="200.8" class="st8" width="49.4" height="5"/>
	</g>
	<path class="st8" d="M241,233c-1.7,0-3-1.3-3-3v-24.6c0-1.7,1.3-3,3-3s3,1.3,3,3V230C244,231.7,242.7,233,241,233z"/>
	<polygon class="st3" points="240.5,167.5 221.3,200.8 259.7,200.8 	"/>
	<path class="st8" d="M193.3,235.3c-1,1.7-0.4,3.8,1.3,4.8s3.8,0.4,4.8-1.3l19-33h-8.1L193.3,235.3z"/>
	<path class="st0" d="M240.5,167.5l19.2,33.3h8.1l-24.3-42c-0.6-1.1-1.8-1.8-3-1.8s-2.4,0.7-3,1.8l-24.3,42h8.1L240.5,167.5z"/>
	<path class="st8" d="M287.7,235.3l-17-29.5h-8.1l19,33c0.6,1.1,1.8,1.8,3,1.8c0.6,0,1.2-0.2,1.7-0.5
		C288.1,239.1,288.7,236.9,287.7,235.3z"/>
	<polygon class="st8" points="261.2,203.3 269.2,203.3 267.8,200.8 259.7,200.8 	"/>
	<polygon class="st8" points="219.8,203.3 221.3,200.8 213.2,200.8 211.8,203.3 	"/>
	<polygon class="st8" points="269.2,203.3 261.2,203.3 262.6,205.8 270.7,205.8 	"/>
	<polygon class="st8" points="211.8,203.3 210.3,205.8 218.4,205.8 219.8,203.3 	"/>
</g>
<g id="bleuFondNoir">
	<polyline class="st9" points="73.8,348.3 98.5,348.3 123.2,348.3 	"/>
	<line class="st10" x1="99" y1="375" x2="99" y2="350.4"/>
	<polygon class="st3" points="98.5,312.5 79.3,345.8 117.7,345.8 	"/>
	<path class="st11" d="M51.3,380.3c-1,1.7-0.4,3.8,1.3,4.8s3.8,0.4,4.8-1.3l19-33h-8.1L51.3,380.3z"/>
	<path class="st5" d="M98.5,312.5l19.2,33.3h8.1l-24.3-42c-0.6-1.1-1.8-1.8-3-1.8s-2.4,0.7-3,1.8l-24.3,42h8.1L98.5,312.5z"/>
	<path class="st11" d="M145.7,380.3l-17-29.5h-8.1l19,33c0.6,1.1,1.8,1.8,3,1.8c0.6,0,1.2-0.2,1.7-0.5
		C146.1,384.1,146.7,381.9,145.7,380.3z"/>
	<polygon class="st11" points="119.2,348.3 127.2,348.3 125.8,345.8 117.7,345.8 	"/>
	<polygon class="st11" points="77.8,348.3 79.3,345.8 71.2,345.8 69.8,348.3 	"/>
	<polygon class="st11" points="127.2,348.3 119.2,348.3 120.6,350.8 128.7,350.8 	"/>
	<polygon class="st11" points="69.8,348.3 68.3,350.8 76.4,350.8 77.8,348.3 	"/>
</g>
<g id="bleuFondBlanc">
	<g>
		<polyline class="st8" points="215.8,344.3 240.5,344.3 265.2,344.3 		"/>
		<rect x="215.8" y="341.8" class="st11" width="49.4" height="5"/>
	</g>
	<path class="st11" d="M241,374c-1.7,0-3-1.3-3-3v-24.6c0-1.7,1.3-3,3-3s3,1.3,3,3V371C244,372.7,242.7,374,241,374z"/>
	<polygon class="st3" points="240.5,308.5 221.3,341.8 259.7,341.8 	"/>
	<path class="st11" d="M193.3,376.3c-1,1.7-0.4,3.8,1.3,4.8s3.8,0.4,4.8-1.3l19-33h-8.1L193.3,376.3z"/>
	<path class="st0" d="M240.5,308.5l19.2,33.3h8.1l-24.3-42c-0.6-1.1-1.8-1.8-3-1.8s-2.4,0.7-3,1.8l-24.3,42h8.1L240.5,308.5z"/>
	<path class="st11" d="M287.7,376.3l-17-29.5h-8.1l19,33c0.6,1.1,1.8,1.8,3,1.8c0.6,0,1.2-0.2,1.7-0.5
		C288.1,380.1,288.7,377.9,287.7,376.3z"/>
	<polygon class="st11" points="261.2,344.3 269.2,344.3 267.8,341.8 259.7,341.8 	"/>
	<polygon class="st11" points="219.8,344.3 221.3,341.8 213.2,341.8 211.8,344.3 	"/>
	<polygon class="st11" points="269.2,344.3 261.2,344.3 262.6,346.8 270.7,346.8 	"/>
	<polygon class="st11" points="211.8,344.3 210.3,346.8 218.4,346.8 219.8,344.3 	"/>
</g>
</svg>
