<svg width="45" height="45" viewBox="0 0 45 45" fill="none" xmlns="http://www.w3.org/2000/svg">
<path d="M22.5 45C34.9264 45 45 34.9264 45 22.5C45 10.0736 34.9264 0 22.5 0C10.0736 0 0 10.0736 0 22.5C0 34.9264 10.0736 45 22.5 45Z" fill="#272727"/>
<path d="M28.4453 31.1823C28.021 28.7345 27.3596 26.3338 26.4706 24.014C28.6106 23.7738 30.7748 23.8648 32.8871 24.284C32.6429 25.6715 32.1242 26.9963 31.3615 28.1808C30.5988 29.3653 29.6074 30.3858 28.4453 31.1823ZM16.1153 30.8593C17.8889 28.1805 20.3506 25.5334 24.39 24.4217C25.3882 26.9382 26.0986 29.5596 26.5077 32.2358C25.2332 32.7538 23.8704 33.0199 22.4947 33.0193C20.1886 33.0203 17.9465 32.2611 16.1153 30.8593ZM11.9806 22.4999V22.1611H12.0441C15.7924 22.1611 19.5194 21.9122 22.8547 20.9328C23.0983 21.4622 23.3524 21.9546 23.58 22.4893C19.1912 23.7811 16.4541 26.6664 14.58 29.4193C12.8966 27.5083 11.9718 25.0466 11.9806 22.4999ZM17.9736 12.9705C19.4115 14.9074 20.7135 16.9417 21.87 19.0587C18.7264 19.8259 15.4965 20.1819 12.2612 20.1175C12.6248 18.5772 13.3291 17.138 14.3222 15.9057C15.3153 14.6734 16.5721 13.6795 18 12.9969L17.9736 12.9705ZM29.3136 14.4634C27.8629 16.2066 25.9864 17.5452 23.8659 18.3493C22.7211 16.2319 21.4371 14.1927 20.0224 12.2452C20.834 12.0514 21.6656 11.9537 22.5 11.954C25.0016 11.9562 27.4193 12.856 29.3136 14.4899V14.4634ZM30.7641 15.9722C32.1642 17.7438 32.9552 19.9199 33.0194 22.177C30.5897 21.7101 28.0992 21.651 25.65 22.0022C25.38 21.3934 25.1206 20.7899 24.8189 20.2128C27.1161 19.3167 29.1578 17.8695 30.7641 15.9987V15.9722ZM22.5 9.8999C20.008 9.8999 17.5719 10.6389 15.4999 12.0234C13.4278 13.4079 11.8128 15.3757 10.8592 17.6781C9.90549 19.9804 9.65596 22.5139 10.1421 24.958C10.6283 27.4022 11.8283 29.6473 13.5905 31.4095C15.3526 33.1716 17.5977 34.3716 20.0419 34.8578C22.4861 35.344 25.0195 35.0944 27.3218 34.1408C29.6242 33.1871 31.592 31.5722 32.9765 29.5001C34.361 27.428 35.1 24.9919 35.1 22.4999C35.1007 20.845 34.7753 19.2063 34.1423 17.6773C33.5094 16.1482 32.5813 14.7589 31.4111 13.5888C30.241 12.4186 28.8517 11.4906 27.3227 10.8576C25.7936 10.2246 24.1549 9.89921 22.5 9.8999Z" fill="white"/>
</svg>
