<?xml version="1.0" encoding="utf-8"?>
<!-- Generator: Adobe Illustrator 23.0.2, SVG Export Plug-In . SVG Version: 6.00 Build 0)  -->
<svg version="1.1" id="Calque_1" xmlns="http://www.w3.org/2000/svg" xmlns:xlink="http://www.w3.org/1999/xlink" x="0px" y="0px"
	 viewBox="0 0 535 393" style="enable-background:new 0 0 535 393;" xml:space="preserve">
<style type="text/css">
	.st0{fill:#5688C7;}
	.st1{fill:none;stroke:#FFFFFF;stroke-width:20.7347;stroke-miterlimit:10;}
	.st2{fill:#BDCCD4;}
</style>
<g>
	<path class="st0" d="M424.1,328h-308c-16.6,0-30-13.4-30-30V104c0-16.6,13.4-30,30-30h308c16.6,0,30,13.4,30,30v194
		C454.1,314.6,440.7,328,424.1,328z"/>
	<path class="st1" d="M70.5,95.6l184,101.1c9.7,5.3,21.5,5.3,31.2,0l184-101.1"/>
</g>
<g>
	<path class="st2" d="M527.3,348c-27.6-23.9-75.5-165.6-126.1-116.9s-55.2,84.7-99.4,67.2s-59.8-62.6-122.4-37.7
		s-56.1,53.4-84.7,40.5C66.3,288.2,12,348,12,348H527.3z"/>
</g>
</svg>
