<svg class="blue" width="45" height="45" viewBox="0 0 45 45" fill="none" xmlns="http://www.w3.org/2000/svg">
<path d="M22.5 45C34.9264 45 45 34.9264 45 22.5C45 10.0736 34.9264 0 22.5 0C10.0736 0 0 10.0736 0 22.5C0 34.9264 10.0736 45 22.5 45Z" fill="#272727"/>
<path fill-rule="evenodd" clip-rule="evenodd" d="M22.5 10.2124C19.509 10.2152 16.6165 11.2819 14.3398 13.2218C12.0631 15.1618 10.5508 17.8483 10.0733 20.801C9.59587 23.7537 10.1844 26.78 11.7336 29.3386C13.2828 31.8972 15.6917 33.8212 18.5294 34.7665C19.1594 34.883 19.3871 34.4913 19.3871 34.163C19.3871 33.8348 19.3871 32.8659 19.3871 31.8177C15.8824 32.5748 15.1518 30.3301 15.1518 30.3301C14.58 28.8742 13.7542 28.4824 13.7542 28.4824C12.6106 27.7042 13.8389 27.7201 13.8389 27.7201C14.2385 27.7747 14.6203 27.92 14.9552 28.1448C15.2901 28.3696 15.5692 28.668 15.7712 29.0171C16.8936 30.9442 18.72 30.3883 19.44 30.0759C19.4936 29.4364 19.7777 28.8381 20.2395 28.3924C17.4389 28.0748 14.4953 26.9895 14.4953 22.1612C14.4777 20.9095 14.9443 19.6994 15.7977 18.7836C15.4092 17.6973 15.4528 16.5033 15.9194 15.4483C15.9194 15.4483 16.9783 15.1095 19.3818 16.7401C21.4474 16.1753 23.6268 16.1753 25.6924 16.7401C28.1012 15.1095 29.1547 15.4483 29.1547 15.4483C29.6214 16.5033 29.6649 17.6973 29.2765 18.7836C30.1284 19.7 30.5931 20.9102 30.5736 22.1612C30.5736 27.0053 27.63 28.0695 24.8242 28.3818C25.1239 28.6881 25.3549 29.0548 25.5019 29.4573C25.6488 29.8599 25.7084 30.2892 25.6765 30.7165C25.6765 32.4001 25.6765 33.7554 25.6765 34.1736C25.6765 34.5071 25.9042 34.8989 26.5447 34.7771C29.3842 33.8312 31.7942 31.9054 33.3433 29.3446C34.8924 26.7838 35.4794 23.7553 34.9991 20.8012C34.5189 17.8471 33.0028 15.1604 30.7223 13.2221C28.4418 11.2839 25.5459 10.2208 22.553 10.223L22.5 10.2124Z" fill="white"/>
<path d="M14.67 28.3024C14.67 28.3659 14.5483 28.3818 14.4583 28.3394C14.3683 28.2971 14.3153 28.2124 14.3418 28.1488C14.3683 28.0853 14.4688 28.0694 14.5588 28.1118C14.6488 28.1541 14.7018 28.2389 14.67 28.3024Z" fill="white"/>
<path d="M15.1836 28.8689C15.1253 28.9271 15.0036 28.9006 14.9241 28.8106C14.887 28.7796 14.8627 28.7359 14.8559 28.688C14.849 28.6401 14.8601 28.5914 14.8871 28.5512C14.9506 28.493 15.0618 28.5194 15.1465 28.6094C15.2312 28.6994 15.2471 28.8159 15.1836 28.8689Z" fill="white"/>
<path d="M15.6812 29.5993C15.6018 29.6523 15.4747 29.5994 15.4006 29.4882C15.3265 29.377 15.3212 29.2394 15.4006 29.1864C15.48 29.1335 15.6018 29.1864 15.6812 29.2923C15.7606 29.3982 15.7606 29.5411 15.6812 29.5993Z" fill="white"/>
<path d="M16.3588 30.2983C16.29 30.3724 16.1417 30.3513 16.0358 30.2507C15.93 30.1501 15.8929 30.0019 15.967 29.9278C16.0411 29.8537 16.1841 29.8748 16.29 29.9754C16.3958 30.076 16.4329 30.2242 16.3588 30.2983Z" fill="white"/>
<path d="M17.3012 30.7059C17.2694 30.8012 17.1265 30.8488 16.9835 30.8065C16.8406 30.7641 16.7506 30.6477 16.7771 30.5471C16.8035 30.4465 16.9518 30.4041 17.0947 30.4465C17.2377 30.4889 17.3277 30.6053 17.3012 30.7059Z" fill="white"/>
<path d="M18.3282 30.78C18.3282 30.8859 18.2117 30.9706 18.0635 30.9706C17.9153 30.9706 17.7882 30.8912 17.7882 30.7906C17.7882 30.69 17.9047 30.6 18.0582 30.5947C18.2117 30.5894 18.3282 30.6794 18.3282 30.78Z" fill="white"/>
<path d="M19.2917 30.6158C19.2917 30.7164 19.2017 30.8223 19.0535 30.8488C18.9053 30.8753 18.7729 30.817 18.757 30.7164C18.7411 30.6158 18.8417 30.5047 18.99 30.4782C19.1382 30.4517 19.2706 30.5153 19.2917 30.6158Z" fill="white"/>
</svg>
