<svg width="49" height="22" viewBox="0 0 49 22" fill="none" xmlns="http://www.w3.org/2000/svg">
<path d="M7.76427 9.7915C7.44427 9.9515 7.10027 10.0955 6.73227 10.2235C6.38027 10.3515 5.99627 10.4555 5.58027 10.5355C5.99627 10.6315 6.38027 10.7435 6.73227 10.8715C7.10027 10.9835 7.44427 11.1275 7.76427 11.3035L18.5403 16.7515C18.8603 16.9115 19.0843 17.0955 19.2123 17.3035C19.3403 17.5115 19.4043 17.7435 19.4043 17.9995V21.0715L0.852268 11.4235V9.6475L19.4043 0.0234985V3.0715C19.4043 3.3435 19.3403 3.5835 19.2123 3.7915C19.0843 3.9835 18.8603 4.1595 18.5403 4.3195L7.76427 9.7915Z" fill="#272727"/>
<path d="M48.76 9.6475V11.4235L30.208 21.0715V17.9995C30.208 17.7435 30.272 17.5115 30.4 17.3035C30.528 17.0955 30.752 16.9115 31.072 16.7515L41.848 11.3035C42.168 11.1275 42.504 10.9835 42.856 10.8715C43.224 10.7435 43.608 10.6315 44.008 10.5355C43.192 10.3595 42.472 10.1115 41.848 9.7915L31.072 4.3195C30.752 4.1595 30.528 3.9835 30.4 3.7915C30.272 3.5835 30.208 3.3435 30.208 3.0715V0.0234985L48.76 9.6475Z" fill="#5688C7"/>
</svg>
