<svg width="45" height="45" viewBox="0 0 45 45" fill="none" xmlns="http://www.w3.org/2000/svg">
<path d="M22.5 45C34.9264 45 45 34.9264 45 22.5C45 10.0736 34.9264 0 22.5 0C10.0736 0 0 10.0736 0 22.5C0 34.9264 10.0736 45 22.5 45Z" fill="#272727"/>
<path d="M22.5 12.1764C25.8617 12.1764 26.2641 12.1765 27.5929 12.2506C28.3923 12.2575 29.1842 12.4045 29.9329 12.6847C30.4748 12.8951 30.967 13.2161 31.378 13.6272C31.7891 14.0383 32.1101 14.5304 32.3205 15.0723C32.6008 15.821 32.7477 16.613 32.7547 17.4123C32.8182 18.7412 32.8288 19.1435 32.8288 22.5053C32.8288 25.867 32.8288 26.2694 32.7547 27.5982C32.7477 28.3976 32.6008 29.1895 32.3205 29.9382C32.1101 30.4801 31.7891 30.9723 31.378 31.3834C30.967 31.7944 30.4748 32.1154 29.9329 32.3259C29.1842 32.6061 28.3923 32.753 27.5929 32.76C26.2641 32.8235 25.867 32.8341 22.5 32.8341C19.1329 32.8341 18.7358 32.8341 17.407 32.76C16.6077 32.753 15.8157 32.6061 15.067 32.3259C14.5295 32.1118 14.0422 31.7886 13.6358 31.3767C13.2294 30.9649 12.9127 30.4732 12.7058 29.9329C12.4256 29.1842 12.2787 28.3923 12.2717 27.5929C12.2082 26.2641 12.1976 25.8617 12.1976 22.5C12.1976 19.1382 12.1976 18.7359 12.2717 17.407C12.2787 16.6077 12.4256 15.8157 12.7058 15.067C12.9164 14.5326 13.2347 14.0471 13.6409 13.6409C14.0471 13.2347 14.5325 12.9164 15.067 12.7059C15.8157 12.4256 16.6077 12.2787 17.407 12.2717C18.7358 12.2082 19.1382 12.1976 22.5 12.1976V12.1764ZM22.5 9.92645C19.08 9.92645 18.6511 9.92645 17.3064 10.0006C16.2606 10.0222 15.2259 10.2209 14.2464 10.5882C13.4024 10.9097 12.6358 11.4062 11.9972 12.0448C11.3585 12.6835 10.8621 13.45 10.5405 14.2941C10.1732 15.2736 9.97452 16.3082 9.9529 17.3541C9.89467 18.6988 9.87878 19.1276 9.87878 22.5476C9.87878 25.9676 9.87878 26.3965 9.9529 27.7412C9.99509 28.7737 10.2098 29.7919 10.5882 30.7535C10.9097 31.5976 11.4061 32.3641 12.0448 33.0028C12.6835 33.6415 13.45 34.1379 14.2941 34.4594C15.2736 34.8267 16.3082 35.0254 17.3541 35.047C18.6988 35.1053 19.1276 35.1212 22.5476 35.1212C25.9676 35.1212 26.3964 35.1212 27.7411 35.047C28.787 35.0254 29.8217 34.8267 30.8011 34.4594C31.6452 34.1379 32.4117 33.6415 33.0504 33.0028C33.6891 32.3641 34.1855 31.5976 34.507 30.7535C34.8743 29.774 35.073 28.7394 35.0947 27.6935C35.1529 26.3488 35.1688 25.92 35.1688 22.5C35.1688 19.08 35.1688 18.6512 35.0947 17.3064C35.073 16.2606 34.8743 15.2259 34.507 14.2464C34.1855 13.4024 33.6891 12.6359 33.0504 11.9972C32.4117 11.3585 31.6452 10.8621 30.8011 10.5405C29.8217 10.1732 28.787 9.97453 27.7411 9.95291C26.3964 9.89467 25.9676 9.87878 22.5476 9.87878L22.5 9.92645Z" fill="white"/>
<path d="M22.5001 16.0305C21.2205 16.0305 19.9697 16.4099 18.9058 17.1208C17.842 17.8316 17.0128 18.842 16.5231 20.0242C16.0334 21.2063 15.9053 22.5071 16.155 23.762C16.4046 25.017 17.0207 26.1697 17.9255 27.0745C18.8303 27.9793 19.983 28.5954 21.2379 28.845C22.4929 29.0946 23.7937 28.9665 24.9758 28.4769C26.1579 27.9872 27.1683 27.158 27.8792 26.0941C28.59 25.0302 28.9695 23.7794 28.9695 22.4999C28.9695 20.7841 28.2879 19.1386 27.0746 17.9253C25.8614 16.7121 24.2158 16.0305 22.5001 16.0305ZM22.5001 26.6981C21.6697 26.6981 20.858 26.4519 20.1676 25.9906C19.4772 25.5293 18.9391 24.8736 18.6214 24.1065C18.3036 23.3394 18.2205 22.4953 18.3825 21.6809C18.5445 20.8665 18.9443 20.1184 19.5315 19.5313C20.1186 18.9442 20.8666 18.5443 21.681 18.3823C22.4954 18.2203 23.3395 18.3035 24.1067 18.6213C24.8738 18.939 25.5295 19.4771 25.9908 20.1675C26.4521 20.8579 26.6983 21.6696 26.6983 22.4999C26.6983 23.6134 26.256 24.6812 25.4687 25.4685C24.6813 26.2558 23.6135 26.6981 22.5001 26.6981Z" fill="white"/>
<path d="M29.2235 17.2905C30.0597 17.2905 30.7376 16.6127 30.7376 15.7764C30.7376 14.9402 30.0597 14.2623 29.2235 14.2623C28.3872 14.2623 27.7094 14.9402 27.7094 15.7764C27.7094 16.6127 28.3872 17.2905 29.2235 17.2905Z" fill="white"/>
</svg>
