<svg width="45" height="45" viewBox="0 0 45 45" fill="none" xmlns="http://www.w3.org/2000/svg">
<path d="M22.5 45C34.9264 45 45 34.9264 45 22.5C45 10.0736 34.9264 0 22.5 0C10.0736 0 0 10.0736 0 22.5C0 34.9264 10.0736 45 22.5 45Z" fill="#272727"/>
<path d="M10.2229 18.1906H15.4482V34.9941H10.2229V18.1906ZM12.8382 9.8418C13.4371 9.8418 14.0226 10.0194 14.5206 10.3521C15.0186 10.6849 15.4067 11.1578 15.6359 11.7112C15.8651 12.2645 15.9251 12.8734 15.8082 13.4608C15.6914 14.0482 15.403 14.5878 14.9795 15.0113C14.5559 15.4348 14.0164 15.7232 13.429 15.8401C12.8415 15.9569 12.2327 15.8969 11.6793 15.6677C11.126 15.4385 10.653 15.0504 10.3203 14.5524C9.98754 14.0544 9.80994 13.4689 9.80994 12.87C9.80994 12.0669 10.129 11.2966 10.6969 10.7287C11.2648 10.1608 12.035 9.8418 12.8382 9.8418Z" fill="white"/>
<path d="M18.7252 18.1906H23.7282V20.4883H23.8235C24.3246 19.6319 25.0487 18.9276 25.9185 18.4502C26.7883 17.9729 27.7714 17.7404 28.7629 17.7777C34.057 17.7777 35.0258 21.2559 35.0258 25.7771V34.9941H29.8058V26.8253C29.8058 24.8771 29.774 22.3677 27.0952 22.3677C24.4164 22.3677 23.9611 24.4853 23.9611 26.6824V34.9941H18.7464L18.7252 18.1906Z" fill="white"/>
</svg>
