<?xml version="1.0" encoding="utf-8"?>
<!-- Generator: Adobe Illustrator 23.0.6, SVG Export Plug-In . SVG Version: 6.00 Build 0)  -->
<svg version="1.1" id="Calque_1" xmlns="http://www.w3.org/2000/svg" xmlns:xlink="http://www.w3.org/1999/xlink" x="0px" y="0px"
	 viewBox="0 0 98 86" style="enable-background:new 0 0 98 86;" xml:space="preserve">
<style type="text/css">
	.st0{fill:#272727;}
	.st1{fill:#5688C7;}
</style>
<path class="st0" d="M48.6,10.7l19.6,34L68,45.4l8.5-0.2v-0.6L51.7,1.8C51.1,0.7,49.9,0,48.6,0s-2.4,0.7-3.1,1.8L20.8,44.7l-0.2,0.7
	h7.8l0.7-0.7L48.6,10.7z"/>
<path class="st1" d="M96.8,79.9L79.4,49.8l-1.5-2.5l-1.4-2.6h-2.7h-5.6H29.1h-5.6h-2.7l-1.4,2.6h0l-1.5,2.5L0.5,79.9
	c-1,1.7-0.4,3.9,1.3,4.9c1.7,1,3.9,0.4,4.9-1.3l19.4-33.7h20v24.7c0,1.7,1.3,3.1,3.1,3.1c1.7,0,3.1-1.3,3.1-3.1V49.8h19l19.4,33.7
	c0.6,1.1,1.8,1.8,3.1,1.8c0.6,0,1.2-0.2,1.7-0.5C97.2,83.7,97.8,81.5,96.8,79.9z"/>
</svg>
