<svg width="98" height="86" viewBox="0 0 98 86" fill="none" xmlns="http://www.w3.org/2000/svg">
<path d="M73.8322 44.6755H23.4447V49.7755H73.8322V44.6755Z" fill="#5688C7"/>
<path d="M49.1484 77.5192C47.4145 77.5192 46.0885 76.1932 46.0885 74.4592V49.3675C46.0885 47.6335 47.4145 46.3075 49.1484 46.3075C50.8824 46.3075 52.2084 47.6335 52.2084 49.3675V74.4592C52.2084 76.1932 50.8824 77.5192 49.1484 77.5192Z" fill="#5688C7"/>
<path d="M0.494949 79.8651C-0.525041 81.5991 0.0869562 83.7411 1.82094 84.7611C3.55492 85.7811 5.69688 85.1691 6.71687 83.4351L26.0967 49.7755H17.8348L0.494949 79.8651Z" fill="#5688C7"/>
<path d="M48.6385 10.7099L68.2223 44.6755H76.4842L51.6984 1.83597C51.0864 0.71398 49.8625 0 48.6385 0C47.4145 0 46.1905 0.71398 45.5785 1.83597L20.7928 44.6755H29.0547L48.6385 10.7099Z" fill="#272727"/>
<path d="M96.7819 79.8651L79.4421 49.7755H71.1802L90.56 83.4351C91.172 84.5571 92.396 85.2711 93.62 85.2711C94.232 85.2711 94.8439 85.0671 95.3539 84.7611C97.1899 83.7411 97.8019 81.4971 96.7819 79.8651Z" fill="#5688C7"/>
<path d="M69.7522 47.2255H77.9121L76.4841 44.6755H68.2222L69.7522 47.2255Z" fill="#5688C7"/>
<path d="M27.5247 47.2255L29.0546 44.6755H20.7927L19.3647 47.2255H27.5247Z" fill="#5688C7"/>
<path d="M77.9121 47.2255H69.7522L71.1802 49.7755H79.4421L77.9121 47.2255Z" fill="#5688C7"/>
<path d="M19.3648 47.2255L17.8348 49.7755H26.0967L27.5247 47.2255H19.3648Z" fill="#5688C7"/>
</svg>
